<?xml version="1.0" encoding="UTF-8" standalone="no"?>
<!-- Generated by IcoMoon.io -->

<svg
   xmlns:dc="http://purl.org/dc/elements/1.1/"
   xmlns:cc="http://creativecommons.org/ns#"
   xmlns:rdf="http://www.w3.org/1999/02/22-rdf-syntax-ns#"
   xmlns:svg="http://www.w3.org/2000/svg"
   xmlns="http://www.w3.org/2000/svg"
   xmlns:sodipodi="http://sodipodi.sourceforge.net/DTD/sodipodi-0.dtd"
   xmlns:inkscape="http://www.inkscape.org/namespaces/inkscape"
   version="1.1"
   width="512"
   height="512"
   viewBox="0 0 512 512"
   id="svg62"
   sodipodi:docname="tab.svg"
   inkscape:version="0.92.4 (5da689c313, 2019-01-14)">
  <metadata
     id="metadata68">
    <rdf:RDF>
      <cc:Work
         rdf:about="">
        <dc:format>image/svg+xml</dc:format>
        <dc:type
           rdf:resource="http://purl.org/dc/dcmitype/StillImage" />
      </cc:Work>
    </rdf:RDF>
  </metadata>
  <defs
     id="defs66" />
  <sodipodi:namedview
     pagecolor="#ffffff"
     bordercolor="#666666"
     borderopacity="1"
     objecttolerance="10"
     gridtolerance="10"
     guidetolerance="10"
     inkscape:pageopacity="0"
     inkscape:pageshadow="2"
     inkscape:window-width="1680"
     inkscape:window-height="987"
     id="namedview64"
     showgrid="false"
     inkscape:zoom="1.5976562"
     inkscape:cx="226.03998"
     inkscape:cy="281.03668"
     inkscape:window-x="1912"
     inkscape:window-y="25"
     inkscape:window-maximized="1"
     inkscape:current-layer="svg62" />
  <title
     id="title51" />
  <g
     id="icomoon-ignore" />
  <path
     d="M480 0h32v256h-32v-256z"
     id="path54" />
  <path
     d="M0 256h32v256h-32v-256z"
     id="path56" />
  <path
     d="M160 352h352v64h-352v80l-112-112 112-112v80z"
     id="path58" />
  <path
     d="M352 160h-352v-64h352v-80l112 112-112 112z"
     id="path60" />
  <path
     style="fill:#0000ff;stroke-width:0.6259169"
     d="M 352.3912,199.57316 V 159.98435 H 176.1956 0 V 128.06259 96.140831 H 176.1956 352.3912 V 56.55203 16.963229 l 55.54968,55.549681 55.54968,55.54968 -55.54968,55.54969 -55.54968,55.54967 z"
     id="path70"
     inkscape:connector-curvature="0" />
  <path
     style="fill:#0000ff;stroke-width:0.6259169"
     d="M 480.07824,128.06259 V 0.37555012 H 496.03912 512 V 128.06259 255.74963 h -15.96088 -15.96088 z"
     id="path72"
     inkscape:connector-curvature="0" />
  <path
     style="fill:#0000ff;stroke-width:0.6259169"
     d="M 103.90308,439.45722 48.510324,384.06171 104.05956,328.51247 159.6088,272.96323 v 39.5888 39.5888 H 335.8044 512 v 31.92176 31.92176 H 335.80907 159.61813 l -0.16114,39.4342 -0.16115,39.43419 z"
     id="path74"
     inkscape:connector-curvature="0" />
  <path
     style="fill:#0041ce;stroke-width:0.6259169;fill-opacity:1"
     d="M 0,384.06259 V 256.37555 H 15.96088 31.92176 V 384.06259 511.74963 H 15.96088 0 Z"
     id="path76"
     inkscape:connector-curvature="0" />
  <path
     style="fill:#0041ce;fill-opacity:1;stroke-width:0.6259169"
     d="M 352.70416,199.26019 V 159.98435 H 176.50856 0.31295844 V 128.06259 96.140831 H 176.50856 352.70416 v -39.27584 -39.27584 l 55.23672,55.23672 55.23672,55.236719 -55.23672,55.23672 -55.23672,55.23672 z"
     id="path4589"
     inkscape:connector-curvature="0" />
  <path
     style="fill:#0041ce;fill-opacity:1;stroke-width:0.6259169"
     d="M 480.3912,128.06259 V 0.37555012 h 15.64792 15.64792 V 128.06259 255.74963 H 496.03912 480.3912 Z"
     id="path4591"
     inkscape:connector-curvature="0" />
  <path
     style="fill:#0041ce;fill-opacity:1;stroke-width:0.6259169"
     d="M 103.90309,439.14427 48.823293,384.0617 104.05957,328.82543 159.29584,273.58915 v 39.27584 39.27584 h 176.1956 176.1956 v 31.92176 31.92176 H 335.49614 159.30525 l -0.16119,39.12125 -0.16117,39.12124 z"
     id="path4593"
     inkscape:connector-curvature="0" />
  <path
     style="fill:#0041ce;fill-opacity:1;stroke-width:0.6259169"
     d="M 0.31295844,384.06259 V 256.37555 H 15.96088 31.608802 V 384.06259 511.74963 H 15.96088 0.31295844 Z"
     id="path4595"
     inkscape:connector-curvature="0" />
  <path
     style="fill:#003567;fill-opacity:1;stroke-width:0.6259169"
     d="M 352.70416,199.26019 V 159.98435 H 176.50856 0.31295506 V 128.06259 96.140826 H 176.50856 352.70416 V 56.864985 17.589143 l 55.23673,55.236722 55.23672,55.236725 -55.23672,55.23672 -55.23673,55.23672 z"
     id="path46"
     inkscape:connector-curvature="0" />
  <path
     style="fill:#003567;fill-opacity:1;stroke-width:0.6259169"
     d="m 103.90309,438.83133 -54.76683,-54.76963 54.92331,-54.92331 54.92332,-54.92332 v 38.96288 38.96288 h 176.1956 176.19561 v 31.92177 31.92176 H 335.18323 158.99236 l -0.16121,38.8083 -0.16122,38.80829 z"
     id="path853"
     inkscape:connector-curvature="0" />
  <path
     style="fill:#003567;fill-opacity:1;stroke-width:0.6259169"
     d="M -3.3860465e-6,384.0626 V 256.37555 H 15.960877 31.921758 V 384.0626 511.74964 H 15.960877 -3.3860465e-6 Z"
     id="path855"
     inkscape:connector-curvature="0" />
  <path
     style="fill:#003567;fill-opacity:1;stroke-width:0.6259169"
     d="M 480.78815,128.06259 V 0.37554212 h 15.33497 15.33496 V 128.06259 255.74963 h -15.33496 -15.33497 z"
     id="path857"
     inkscape:connector-curvature="0" />
</svg>
